<mxfile host="app.diagrams.net" modified="2022-02-27T20:38:39.289Z" agent="5.0 (Windows NT 10.0; Win64; x64) AppleWebKit/537.36 (KHTML, like Gecko) Chrome/98.0.4758.102 Safari/537.36" etag="vyOsMpwMrR6ODJocV-hy" version="16.6.4" type="github">
  <diagram id="C5RBs43oDa-KdzZeNtuy" name="Page-1">
    <mxGraphModel dx="2249" dy="794" grid="1" gridSize="10" guides="1" tooltips="1" connect="1" arrows="1" fold="1" page="1" pageScale="1" pageWidth="827" pageHeight="1169" math="0" shadow="0">
      <root>
        <mxCell id="WIyWlLk6GJQsqaUBKTNV-0" />
        <mxCell id="WIyWlLk6GJQsqaUBKTNV-1" parent="WIyWlLk6GJQsqaUBKTNV-0" />
        <mxCell id="WIyWlLk6GJQsqaUBKTNV-2" value="" style="rounded=0;html=1;jettySize=auto;orthogonalLoop=1;fontSize=11;endArrow=block;endFill=0;endSize=8;strokeWidth=1;shadow=0;labelBackgroundColor=none;edgeStyle=orthogonalEdgeStyle;" parent="WIyWlLk6GJQsqaUBKTNV-1" source="WIyWlLk6GJQsqaUBKTNV-3" edge="1">
          <mxGeometry relative="1" as="geometry">
            <mxPoint x="220" y="170" as="targetPoint" />
          </mxGeometry>
        </mxCell>
        <mxCell id="WIyWlLk6GJQsqaUBKTNV-3" value="Inicio" style="rounded=1;whiteSpace=wrap;html=1;fontSize=12;glass=0;strokeWidth=1;shadow=0;" parent="WIyWlLk6GJQsqaUBKTNV-1" vertex="1">
          <mxGeometry x="160" y="80" width="120" height="40" as="geometry" />
        </mxCell>
        <mxCell id="WIyWlLk6GJQsqaUBKTNV-11" value="Fin" style="rounded=1;whiteSpace=wrap;html=1;fontSize=12;glass=0;strokeWidth=1;shadow=0;" parent="WIyWlLk6GJQsqaUBKTNV-1" vertex="1">
          <mxGeometry x="340" y="1070" width="120" height="40" as="geometry" />
        </mxCell>
        <mxCell id="46j91-FNaxugVj8FgMSO-0" value="Asignar el valor 0 a la variable opcion" style="rounded=0;whiteSpace=wrap;html=1;" vertex="1" parent="WIyWlLk6GJQsqaUBKTNV-1">
          <mxGeometry x="160" y="170" width="120" height="60" as="geometry" />
        </mxCell>
        <mxCell id="46j91-FNaxugVj8FgMSO-1" value="" style="rounded=0;html=1;jettySize=auto;orthogonalLoop=1;fontSize=11;endArrow=block;endFill=0;endSize=8;strokeWidth=1;shadow=0;labelBackgroundColor=none;edgeStyle=orthogonalEdgeStyle;" edge="1" parent="WIyWlLk6GJQsqaUBKTNV-1">
          <mxGeometry relative="1" as="geometry">
            <mxPoint x="219.5" y="230" as="sourcePoint" />
            <mxPoint x="219.5" y="280" as="targetPoint" />
          </mxGeometry>
        </mxCell>
        <mxCell id="46j91-FNaxugVj8FgMSO-2" value="Escribir ¿Tamaño?" style="shape=parallelogram;perimeter=parallelogramPerimeter;whiteSpace=wrap;html=1;fixedSize=1;" vertex="1" parent="WIyWlLk6GJQsqaUBKTNV-1">
          <mxGeometry x="150" y="280" width="140" height="60" as="geometry" />
        </mxCell>
        <mxCell id="46j91-FNaxugVj8FgMSO-10" value="" style="rounded=0;html=1;jettySize=auto;orthogonalLoop=1;fontSize=11;endArrow=block;endFill=0;endSize=8;strokeWidth=1;shadow=0;labelBackgroundColor=none;edgeStyle=orthogonalEdgeStyle;" edge="1" parent="WIyWlLk6GJQsqaUBKTNV-1">
          <mxGeometry relative="1" as="geometry">
            <mxPoint x="219.5" y="780" as="sourcePoint" />
            <mxPoint x="219.5" y="830" as="targetPoint" />
          </mxGeometry>
        </mxCell>
        <mxCell id="46j91-FNaxugVj8FgMSO-11" value="" style="rounded=0;html=1;jettySize=auto;orthogonalLoop=1;fontSize=11;endArrow=block;endFill=0;endSize=8;strokeWidth=1;shadow=0;labelBackgroundColor=none;edgeStyle=orthogonalEdgeStyle;" edge="1" parent="WIyWlLk6GJQsqaUBKTNV-1">
          <mxGeometry relative="1" as="geometry">
            <mxPoint x="219.5" y="670" as="sourcePoint" />
            <mxPoint x="219.5" y="720" as="targetPoint" />
          </mxGeometry>
        </mxCell>
        <mxCell id="46j91-FNaxugVj8FgMSO-12" value="" style="rounded=0;html=1;jettySize=auto;orthogonalLoop=1;fontSize=11;endArrow=block;endFill=0;endSize=8;strokeWidth=1;shadow=0;labelBackgroundColor=none;edgeStyle=orthogonalEdgeStyle;" edge="1" parent="WIyWlLk6GJQsqaUBKTNV-1">
          <mxGeometry relative="1" as="geometry">
            <mxPoint x="219.5" y="560" as="sourcePoint" />
            <mxPoint x="219.5" y="610" as="targetPoint" />
          </mxGeometry>
        </mxCell>
        <mxCell id="46j91-FNaxugVj8FgMSO-13" value="" style="rounded=0;html=1;jettySize=auto;orthogonalLoop=1;fontSize=11;endArrow=block;endFill=0;endSize=8;strokeWidth=1;shadow=0;labelBackgroundColor=none;edgeStyle=orthogonalEdgeStyle;" edge="1" parent="WIyWlLk6GJQsqaUBKTNV-1">
          <mxGeometry relative="1" as="geometry">
            <mxPoint x="219.5" y="450" as="sourcePoint" />
            <mxPoint x="219.5" y="500" as="targetPoint" />
          </mxGeometry>
        </mxCell>
        <mxCell id="46j91-FNaxugVj8FgMSO-14" value="" style="rounded=0;html=1;jettySize=auto;orthogonalLoop=1;fontSize=11;endArrow=block;endFill=0;endSize=8;strokeWidth=1;shadow=0;labelBackgroundColor=none;edgeStyle=orthogonalEdgeStyle;" edge="1" parent="WIyWlLk6GJQsqaUBKTNV-1">
          <mxGeometry relative="1" as="geometry">
            <mxPoint x="219.5" y="340" as="sourcePoint" />
            <mxPoint x="219.5" y="390" as="targetPoint" />
          </mxGeometry>
        </mxCell>
        <mxCell id="46j91-FNaxugVj8FgMSO-15" value="Asignar el valor introducido a la variable tamaño" style="shape=parallelogram;perimeter=parallelogramPerimeter;whiteSpace=wrap;html=1;fixedSize=1;" vertex="1" parent="WIyWlLk6GJQsqaUBKTNV-1">
          <mxGeometry x="120" y="390" width="200" height="60" as="geometry" />
        </mxCell>
        <mxCell id="46j91-FNaxugVj8FgMSO-16" value="Escribir ¿Carácter?" style="shape=parallelogram;perimeter=parallelogramPerimeter;whiteSpace=wrap;html=1;fixedSize=1;" vertex="1" parent="WIyWlLk6GJQsqaUBKTNV-1">
          <mxGeometry x="150" y="500" width="140" height="60" as="geometry" />
        </mxCell>
        <mxCell id="46j91-FNaxugVj8FgMSO-17" value="Asignar el valor introducido a la variable caracter" style="shape=parallelogram;perimeter=parallelogramPerimeter;whiteSpace=wrap;html=1;fixedSize=1;" vertex="1" parent="WIyWlLk6GJQsqaUBKTNV-1">
          <mxGeometry x="120" y="610" width="200" height="60" as="geometry" />
        </mxCell>
        <mxCell id="46j91-FNaxugVj8FgMSO-18" value="Escribir ¿Forma?" style="shape=parallelogram;perimeter=parallelogramPerimeter;whiteSpace=wrap;html=1;fixedSize=1;" vertex="1" parent="WIyWlLk6GJQsqaUBKTNV-1">
          <mxGeometry x="150" y="720" width="140" height="60" as="geometry" />
        </mxCell>
        <mxCell id="46j91-FNaxugVj8FgMSO-19" value="Mostrar el menu()" style="shape=parallelogram;perimeter=parallelogramPerimeter;whiteSpace=wrap;html=1;fixedSize=1;" vertex="1" parent="WIyWlLk6GJQsqaUBKTNV-1">
          <mxGeometry x="160" y="830" width="120" height="60" as="geometry" />
        </mxCell>
        <mxCell id="46j91-FNaxugVj8FgMSO-20" value="" style="rounded=0;html=1;jettySize=auto;orthogonalLoop=1;fontSize=11;endArrow=block;endFill=0;endSize=8;strokeWidth=1;shadow=0;labelBackgroundColor=none;edgeStyle=orthogonalEdgeStyle;" edge="1" parent="WIyWlLk6GJQsqaUBKTNV-1">
          <mxGeometry relative="1" as="geometry">
            <mxPoint x="219.5" y="890" as="sourcePoint" />
            <mxPoint x="219.5" y="940" as="targetPoint" />
          </mxGeometry>
        </mxCell>
        <mxCell id="46j91-FNaxugVj8FgMSO-21" value="Almacenar el valor introducido en la variable opcion" style="shape=parallelogram;perimeter=parallelogramPerimeter;whiteSpace=wrap;html=1;fixedSize=1;" vertex="1" parent="WIyWlLk6GJQsqaUBKTNV-1">
          <mxGeometry x="155" y="940" width="130" height="60" as="geometry" />
        </mxCell>
        <mxCell id="46j91-FNaxugVj8FgMSO-22" value="¿opcion != 7?" style="rhombus;whiteSpace=wrap;html=1;" vertex="1" parent="WIyWlLk6GJQsqaUBKTNV-1">
          <mxGeometry x="180" y="1050" width="80" height="80" as="geometry" />
        </mxCell>
        <mxCell id="46j91-FNaxugVj8FgMSO-23" value="" style="rounded=0;html=1;jettySize=auto;orthogonalLoop=1;fontSize=11;endArrow=block;endFill=0;endSize=8;strokeWidth=1;shadow=0;labelBackgroundColor=none;edgeStyle=orthogonalEdgeStyle;" edge="1" parent="WIyWlLk6GJQsqaUBKTNV-1">
          <mxGeometry relative="1" as="geometry">
            <mxPoint x="219.5" y="1000" as="sourcePoint" />
            <mxPoint x="219.5" y="1050" as="targetPoint" />
          </mxGeometry>
        </mxCell>
        <mxCell id="46j91-FNaxugVj8FgMSO-24" value="" style="rounded=0;html=1;jettySize=auto;orthogonalLoop=1;fontSize=11;endArrow=block;endFill=0;endSize=8;strokeWidth=1;shadow=0;labelBackgroundColor=none;edgeStyle=orthogonalEdgeStyle;" edge="1" parent="WIyWlLk6GJQsqaUBKTNV-1">
          <mxGeometry relative="1" as="geometry">
            <mxPoint x="219.5" y="1130" as="sourcePoint" />
            <mxPoint x="219.5" y="1180" as="targetPoint" />
          </mxGeometry>
        </mxCell>
        <mxCell id="46j91-FNaxugVj8FgMSO-25" value="&lt;b&gt;Verdadero:&lt;/b&gt;" style="text;html=1;strokeColor=none;fillColor=none;align=center;verticalAlign=middle;whiteSpace=wrap;rounded=0;" vertex="1" parent="WIyWlLk6GJQsqaUBKTNV-1">
          <mxGeometry x="150" y="1130" width="60" height="30" as="geometry" />
        </mxCell>
        <mxCell id="46j91-FNaxugVj8FgMSO-27" value="" style="rounded=0;html=1;jettySize=auto;orthogonalLoop=1;fontSize=11;endArrow=block;endFill=0;endSize=8;strokeWidth=1;shadow=0;labelBackgroundColor=none;edgeStyle=orthogonalEdgeStyle;" edge="1" parent="WIyWlLk6GJQsqaUBKTNV-1">
          <mxGeometry relative="1" as="geometry">
            <mxPoint x="260" y="1089.5" as="sourcePoint" />
            <mxPoint x="340" y="1089.5" as="targetPoint" />
          </mxGeometry>
        </mxCell>
        <mxCell id="46j91-FNaxugVj8FgMSO-28" value="&lt;b&gt;Falso:&lt;/b&gt;" style="text;html=1;strokeColor=none;fillColor=none;align=center;verticalAlign=middle;whiteSpace=wrap;rounded=0;" vertex="1" parent="WIyWlLk6GJQsqaUBKTNV-1">
          <mxGeometry x="260" y="1050" width="60" height="30" as="geometry" />
        </mxCell>
        <mxCell id="46j91-FNaxugVj8FgMSO-29" value="" style="endArrow=none;html=1;rounded=0;" edge="1" parent="WIyWlLk6GJQsqaUBKTNV-1">
          <mxGeometry width="50" height="50" relative="1" as="geometry">
            <mxPoint x="-610" y="1180" as="sourcePoint" />
            <mxPoint x="1730" y="1180" as="targetPoint" />
          </mxGeometry>
        </mxCell>
        <mxCell id="46j91-FNaxugVj8FgMSO-32" value="&lt;b&gt;case 1:&lt;/b&gt;" style="text;html=1;strokeColor=none;fillColor=none;align=center;verticalAlign=middle;whiteSpace=wrap;rounded=0;" vertex="1" parent="WIyWlLk6GJQsqaUBKTNV-1">
          <mxGeometry x="-670" y="1180" width="60" height="30" as="geometry" />
        </mxCell>
        <mxCell id="46j91-FNaxugVj8FgMSO-33" value="Asignar el valor 0 a la variable filas" style="rounded=0;whiteSpace=wrap;html=1;" vertex="1" parent="WIyWlLk6GJQsqaUBKTNV-1">
          <mxGeometry x="-670" y="1230" width="120" height="60" as="geometry" />
        </mxCell>
        <mxCell id="46j91-FNaxugVj8FgMSO-34" value="Asignar el valor 0 a la variable columna" style="rounded=0;whiteSpace=wrap;html=1;" vertex="1" parent="WIyWlLk6GJQsqaUBKTNV-1">
          <mxGeometry x="-670" y="1340" width="120" height="60" as="geometry" />
        </mxCell>
        <mxCell id="46j91-FNaxugVj8FgMSO-35" value="" style="rounded=0;html=1;jettySize=auto;orthogonalLoop=1;fontSize=11;endArrow=block;endFill=0;endSize=8;strokeWidth=1;shadow=0;labelBackgroundColor=none;edgeStyle=orthogonalEdgeStyle;" edge="1" parent="WIyWlLk6GJQsqaUBKTNV-1">
          <mxGeometry relative="1" as="geometry">
            <mxPoint x="-610.5" y="1290" as="sourcePoint" />
            <mxPoint x="-610.5" y="1340" as="targetPoint" />
          </mxGeometry>
        </mxCell>
        <mxCell id="46j91-FNaxugVj8FgMSO-36" value="¿filas &amp;lt; tamaño?" style="rhombus;whiteSpace=wrap;html=1;" vertex="1" parent="WIyWlLk6GJQsqaUBKTNV-1">
          <mxGeometry x="-640" y="1450" width="80" height="80" as="geometry" />
        </mxCell>
        <mxCell id="46j91-FNaxugVj8FgMSO-37" value="" style="rounded=0;html=1;jettySize=auto;orthogonalLoop=1;fontSize=11;endArrow=block;endFill=0;endSize=8;strokeWidth=1;shadow=0;labelBackgroundColor=none;edgeStyle=orthogonalEdgeStyle;" edge="1" parent="WIyWlLk6GJQsqaUBKTNV-1">
          <mxGeometry relative="1" as="geometry">
            <mxPoint x="-600.5" y="1400" as="sourcePoint" />
            <mxPoint x="-600.5" y="1450" as="targetPoint" />
          </mxGeometry>
        </mxCell>
        <mxCell id="46j91-FNaxugVj8FgMSO-38" value="" style="rounded=0;html=1;jettySize=auto;orthogonalLoop=1;fontSize=11;endArrow=block;endFill=0;endSize=8;strokeWidth=1;shadow=0;labelBackgroundColor=none;edgeStyle=orthogonalEdgeStyle;" edge="1" parent="WIyWlLk6GJQsqaUBKTNV-1">
          <mxGeometry relative="1" as="geometry">
            <mxPoint x="-600.5" y="1530" as="sourcePoint" />
            <mxPoint x="-600.5" y="1580" as="targetPoint" />
          </mxGeometry>
        </mxCell>
        <mxCell id="46j91-FNaxugVj8FgMSO-39" value="" style="rounded=0;html=1;jettySize=auto;orthogonalLoop=1;fontSize=11;endArrow=block;endFill=0;endSize=8;strokeWidth=1;shadow=0;labelBackgroundColor=none;edgeStyle=orthogonalEdgeStyle;" edge="1" parent="WIyWlLk6GJQsqaUBKTNV-1">
          <mxGeometry relative="1" as="geometry">
            <mxPoint x="-560" y="1489.5" as="sourcePoint" />
            <mxPoint x="-520" y="1489.5" as="targetPoint" />
          </mxGeometry>
        </mxCell>
        <mxCell id="46j91-FNaxugVj8FgMSO-40" value="&lt;b&gt;Verdadero:&lt;/b&gt;" style="text;html=1;strokeColor=none;fillColor=none;align=center;verticalAlign=middle;whiteSpace=wrap;rounded=0;" vertex="1" parent="WIyWlLk6GJQsqaUBKTNV-1">
          <mxGeometry x="-670" y="1530" width="60" height="30" as="geometry" />
        </mxCell>
        <mxCell id="46j91-FNaxugVj8FgMSO-41" value="&lt;b&gt;Falso:&lt;/b&gt;" style="text;html=1;strokeColor=none;fillColor=none;align=center;verticalAlign=middle;whiteSpace=wrap;rounded=0;" vertex="1" parent="WIyWlLk6GJQsqaUBKTNV-1">
          <mxGeometry x="-570" y="1460" width="60" height="30" as="geometry" />
        </mxCell>
        <mxCell id="46j91-FNaxugVj8FgMSO-42" value="Escribir &quot;&quot;" style="shape=parallelogram;perimeter=parallelogramPerimeter;whiteSpace=wrap;html=1;fixedSize=1;" vertex="1" parent="WIyWlLk6GJQsqaUBKTNV-1">
          <mxGeometry x="-660" y="1580" width="120" height="60" as="geometry" />
        </mxCell>
        <mxCell id="46j91-FNaxugVj8FgMSO-43" value="" style="rounded=0;html=1;jettySize=auto;orthogonalLoop=1;fontSize=11;endArrow=block;endFill=0;endSize=8;strokeWidth=1;shadow=0;labelBackgroundColor=none;edgeStyle=orthogonalEdgeStyle;" edge="1" parent="WIyWlLk6GJQsqaUBKTNV-1">
          <mxGeometry relative="1" as="geometry">
            <mxPoint x="-600.5" y="1640" as="sourcePoint" />
            <mxPoint x="-600.5" y="1690" as="targetPoint" />
          </mxGeometry>
        </mxCell>
        <mxCell id="46j91-FNaxugVj8FgMSO-44" value="¿columnas &amp;lt; tamaño?" style="rhombus;whiteSpace=wrap;html=1;" vertex="1" parent="WIyWlLk6GJQsqaUBKTNV-1">
          <mxGeometry x="-645" y="1800" width="90" height="80" as="geometry" />
        </mxCell>
        <mxCell id="46j91-FNaxugVj8FgMSO-47" value="" style="rounded=0;html=1;jettySize=auto;orthogonalLoop=1;fontSize=11;endArrow=block;endFill=0;endSize=8;strokeWidth=1;shadow=0;labelBackgroundColor=none;edgeStyle=orthogonalEdgeStyle;" edge="1" parent="WIyWlLk6GJQsqaUBKTNV-1">
          <mxGeometry relative="1" as="geometry">
            <mxPoint x="-600.5" y="1880" as="sourcePoint" />
            <mxPoint x="-600.5" y="1930" as="targetPoint" />
          </mxGeometry>
        </mxCell>
        <mxCell id="46j91-FNaxugVj8FgMSO-48" value="" style="rounded=0;html=1;jettySize=auto;orthogonalLoop=1;fontSize=11;endArrow=block;endFill=0;endSize=8;strokeWidth=1;shadow=0;labelBackgroundColor=none;edgeStyle=orthogonalEdgeStyle;" edge="1" parent="WIyWlLk6GJQsqaUBKTNV-1">
          <mxGeometry relative="1" as="geometry">
            <mxPoint x="-555" y="1839.5" as="sourcePoint" />
            <mxPoint x="-515" y="1839.5" as="targetPoint" />
          </mxGeometry>
        </mxCell>
        <mxCell id="46j91-FNaxugVj8FgMSO-50" value="&lt;b&gt;Falso:&lt;/b&gt;" style="text;html=1;strokeColor=none;fillColor=none;align=center;verticalAlign=middle;whiteSpace=wrap;rounded=0;" vertex="1" parent="WIyWlLk6GJQsqaUBKTNV-1">
          <mxGeometry x="-550" y="1810" width="30" height="30" as="geometry" />
        </mxCell>
        <mxCell id="46j91-FNaxugVj8FgMSO-51" value="&lt;b&gt;Verdadero:&lt;/b&gt;" style="text;html=1;strokeColor=none;fillColor=none;align=center;verticalAlign=middle;whiteSpace=wrap;rounded=0;" vertex="1" parent="WIyWlLk6GJQsqaUBKTNV-1">
          <mxGeometry x="-655" y="1910" width="30" as="geometry" />
        </mxCell>
        <mxCell id="46j91-FNaxugVj8FgMSO-53" value="Escribir la variable caracter" style="shape=parallelogram;perimeter=parallelogramPerimeter;whiteSpace=wrap;html=1;fixedSize=1;" vertex="1" parent="WIyWlLk6GJQsqaUBKTNV-1">
          <mxGeometry x="-660" y="1930" width="130" height="60" as="geometry" />
        </mxCell>
        <mxCell id="46j91-FNaxugVj8FgMSO-55" value="filas = filas +1" style="rounded=0;whiteSpace=wrap;html=1;" vertex="1" parent="WIyWlLk6GJQsqaUBKTNV-1">
          <mxGeometry x="-660" y="1690" width="120" height="60" as="geometry" />
        </mxCell>
        <mxCell id="46j91-FNaxugVj8FgMSO-57" value="" style="rounded=0;html=1;jettySize=auto;orthogonalLoop=1;fontSize=11;endArrow=block;endFill=0;endSize=8;strokeWidth=1;shadow=0;labelBackgroundColor=none;edgeStyle=orthogonalEdgeStyle;" edge="1" parent="WIyWlLk6GJQsqaUBKTNV-1">
          <mxGeometry relative="1" as="geometry">
            <mxPoint x="-600.5" y="1750" as="sourcePoint" />
            <mxPoint x="-600.5" y="1800" as="targetPoint" />
          </mxGeometry>
        </mxCell>
        <mxCell id="46j91-FNaxugVj8FgMSO-62" value="columnas = columnas +1" style="rounded=0;whiteSpace=wrap;html=1;" vertex="1" parent="WIyWlLk6GJQsqaUBKTNV-1">
          <mxGeometry x="-655" y="2040" width="120" height="60" as="geometry" />
        </mxCell>
        <mxCell id="46j91-FNaxugVj8FgMSO-63" value="" style="rounded=0;html=1;jettySize=auto;orthogonalLoop=1;fontSize=11;endArrow=block;endFill=0;endSize=8;strokeWidth=1;shadow=0;labelBackgroundColor=none;edgeStyle=orthogonalEdgeStyle;" edge="1" parent="WIyWlLk6GJQsqaUBKTNV-1">
          <mxGeometry relative="1" as="geometry">
            <mxPoint x="-595.5" y="1990" as="sourcePoint" />
            <mxPoint x="-595.5" y="2040" as="targetPoint" />
          </mxGeometry>
        </mxCell>
        <mxCell id="46j91-FNaxugVj8FgMSO-67" value="" style="rounded=0;html=1;jettySize=auto;orthogonalLoop=1;fontSize=11;endArrow=block;endFill=0;endSize=8;strokeWidth=1;shadow=0;labelBackgroundColor=none;edgeStyle=orthogonalEdgeStyle;" edge="1" parent="WIyWlLk6GJQsqaUBKTNV-1">
          <mxGeometry relative="1" as="geometry">
            <mxPoint x="30" y="1180" as="sourcePoint" />
            <mxPoint x="30" y="1230" as="targetPoint" />
          </mxGeometry>
        </mxCell>
        <mxCell id="46j91-FNaxugVj8FgMSO-68" value="&lt;b&gt;case 2:&lt;/b&gt;" style="text;html=1;strokeColor=none;fillColor=none;align=center;verticalAlign=middle;whiteSpace=wrap;rounded=0;" vertex="1" parent="WIyWlLk6GJQsqaUBKTNV-1">
          <mxGeometry x="-30" y="1180" width="60" height="30" as="geometry" />
        </mxCell>
        <mxCell id="46j91-FNaxugVj8FgMSO-69" value="Asignar el valor 1 a la variable filas" style="rounded=0;whiteSpace=wrap;html=1;" vertex="1" parent="WIyWlLk6GJQsqaUBKTNV-1">
          <mxGeometry x="-30" y="1230" width="120" height="60" as="geometry" />
        </mxCell>
        <mxCell id="46j91-FNaxugVj8FgMSO-70" value="Asignar el valor 1 a la variable columna" style="rounded=0;whiteSpace=wrap;html=1;" vertex="1" parent="WIyWlLk6GJQsqaUBKTNV-1">
          <mxGeometry x="-30" y="1340" width="120" height="60" as="geometry" />
        </mxCell>
        <mxCell id="46j91-FNaxugVj8FgMSO-71" value="" style="rounded=0;html=1;jettySize=auto;orthogonalLoop=1;fontSize=11;endArrow=block;endFill=0;endSize=8;strokeWidth=1;shadow=0;labelBackgroundColor=none;edgeStyle=orthogonalEdgeStyle;" edge="1" parent="WIyWlLk6GJQsqaUBKTNV-1">
          <mxGeometry relative="1" as="geometry">
            <mxPoint x="29.5" y="1290" as="sourcePoint" />
            <mxPoint x="29.5" y="1340" as="targetPoint" />
          </mxGeometry>
        </mxCell>
        <mxCell id="46j91-FNaxugVj8FgMSO-72" value="¿filas &amp;lt; tamaño y columnas &amp;lt;= tamaño?" style="rhombus;whiteSpace=wrap;html=1;" vertex="1" parent="WIyWlLk6GJQsqaUBKTNV-1">
          <mxGeometry x="-40" y="1450" width="140" height="100" as="geometry" />
        </mxCell>
        <mxCell id="46j91-FNaxugVj8FgMSO-73" value="" style="rounded=0;html=1;jettySize=auto;orthogonalLoop=1;fontSize=11;endArrow=block;endFill=0;endSize=8;strokeWidth=1;shadow=0;labelBackgroundColor=none;edgeStyle=orthogonalEdgeStyle;" edge="1" parent="WIyWlLk6GJQsqaUBKTNV-1">
          <mxGeometry relative="1" as="geometry">
            <mxPoint x="29.5" y="1400" as="sourcePoint" />
            <mxPoint x="29.5" y="1450" as="targetPoint" />
          </mxGeometry>
        </mxCell>
        <mxCell id="46j91-FNaxugVj8FgMSO-74" value="" style="rounded=0;html=1;jettySize=auto;orthogonalLoop=1;fontSize=11;endArrow=block;endFill=0;endSize=8;strokeWidth=1;shadow=0;labelBackgroundColor=none;edgeStyle=orthogonalEdgeStyle;" edge="1" parent="WIyWlLk6GJQsqaUBKTNV-1">
          <mxGeometry relative="1" as="geometry">
            <mxPoint x="100" y="1499.5" as="sourcePoint" />
            <mxPoint x="140" y="1499.5" as="targetPoint" />
          </mxGeometry>
        </mxCell>
        <mxCell id="46j91-FNaxugVj8FgMSO-76" value="&lt;b&gt;Falso:&lt;/b&gt;" style="text;html=1;strokeColor=none;fillColor=none;align=center;verticalAlign=middle;whiteSpace=wrap;rounded=0;" vertex="1" parent="WIyWlLk6GJQsqaUBKTNV-1">
          <mxGeometry x="90" y="1470" width="60" height="30" as="geometry" />
        </mxCell>
        <mxCell id="46j91-FNaxugVj8FgMSO-77" value="" style="rounded=0;html=1;jettySize=auto;orthogonalLoop=1;fontSize=11;endArrow=block;endFill=0;endSize=8;strokeWidth=1;shadow=0;labelBackgroundColor=none;edgeStyle=orthogonalEdgeStyle;" edge="1" parent="WIyWlLk6GJQsqaUBKTNV-1">
          <mxGeometry relative="1" as="geometry">
            <mxPoint x="30" y="1550" as="sourcePoint" />
            <mxPoint x="30" y="1600" as="targetPoint" />
          </mxGeometry>
        </mxCell>
        <mxCell id="46j91-FNaxugVj8FgMSO-81" value="&lt;b&gt;Verdadero:&lt;/b&gt;" style="text;html=1;strokeColor=none;fillColor=none;align=center;verticalAlign=middle;whiteSpace=wrap;rounded=0;" vertex="1" parent="WIyWlLk6GJQsqaUBKTNV-1">
          <mxGeometry x="-40" y="1550" width="60" height="30" as="geometry" />
        </mxCell>
        <mxCell id="46j91-FNaxugVj8FgMSO-84" value="Escribir la variable caracter" style="shape=parallelogram;perimeter=parallelogramPerimeter;whiteSpace=wrap;html=1;fixedSize=1;" vertex="1" parent="WIyWlLk6GJQsqaUBKTNV-1">
          <mxGeometry x="-40" y="1780" width="130" height="60" as="geometry" />
        </mxCell>
        <mxCell id="46j91-FNaxugVj8FgMSO-78" value="¿filas == 1 o filas == tamaño o columnas==1 o columnas == tamaño?" style="rhombus;whiteSpace=wrap;html=1;" vertex="1" parent="WIyWlLk6GJQsqaUBKTNV-1">
          <mxGeometry x="-190" y="1600" width="440" height="130" as="geometry" />
        </mxCell>
        <mxCell id="46j91-FNaxugVj8FgMSO-86" value="" style="rounded=0;html=1;jettySize=auto;orthogonalLoop=1;fontSize=11;endArrow=block;endFill=0;endSize=8;strokeWidth=1;shadow=0;labelBackgroundColor=none;edgeStyle=orthogonalEdgeStyle;" edge="1" parent="WIyWlLk6GJQsqaUBKTNV-1">
          <mxGeometry relative="1" as="geometry">
            <mxPoint x="29.5" y="1729" as="sourcePoint" />
            <mxPoint x="29.5" y="1779" as="targetPoint" />
          </mxGeometry>
        </mxCell>
        <mxCell id="46j91-FNaxugVj8FgMSO-87" value="" style="rounded=0;html=1;jettySize=auto;orthogonalLoop=1;fontSize=11;endArrow=block;endFill=0;endSize=8;strokeWidth=1;shadow=0;labelBackgroundColor=none;edgeStyle=orthogonalEdgeStyle;" edge="1" parent="WIyWlLk6GJQsqaUBKTNV-1">
          <mxGeometry relative="1" as="geometry">
            <mxPoint x="-612" y="1180" as="sourcePoint" />
            <mxPoint x="-612" y="1230" as="targetPoint" />
          </mxGeometry>
        </mxCell>
        <mxCell id="46j91-FNaxugVj8FgMSO-88" value="" style="rounded=0;html=1;jettySize=auto;orthogonalLoop=1;fontSize=11;endArrow=block;endFill=0;endSize=8;strokeWidth=1;shadow=0;labelBackgroundColor=none;edgeStyle=orthogonalEdgeStyle;" edge="1" parent="WIyWlLk6GJQsqaUBKTNV-1">
          <mxGeometry relative="1" as="geometry">
            <mxPoint x="245" y="1664.5" as="sourcePoint" />
            <mxPoint x="285" y="1664.5" as="targetPoint" />
          </mxGeometry>
        </mxCell>
        <mxCell id="46j91-FNaxugVj8FgMSO-89" value="Escribir &quot; &quot;" style="shape=parallelogram;perimeter=parallelogramPerimeter;whiteSpace=wrap;html=1;fixedSize=1;" vertex="1" parent="WIyWlLk6GJQsqaUBKTNV-1">
          <mxGeometry x="280" y="1635" width="120" height="60" as="geometry" />
        </mxCell>
        <mxCell id="46j91-FNaxugVj8FgMSO-90" value="filas = filas + 1 y columnas = columnas + 1" style="rounded=0;whiteSpace=wrap;html=1;" vertex="1" parent="WIyWlLk6GJQsqaUBKTNV-1">
          <mxGeometry x="-30" y="1890" width="120" height="60" as="geometry" />
        </mxCell>
        <mxCell id="46j91-FNaxugVj8FgMSO-91" value="" style="rounded=0;html=1;jettySize=auto;orthogonalLoop=1;fontSize=11;endArrow=block;endFill=0;endSize=8;strokeWidth=1;shadow=0;labelBackgroundColor=none;edgeStyle=orthogonalEdgeStyle;" edge="1" parent="WIyWlLk6GJQsqaUBKTNV-1">
          <mxGeometry relative="1" as="geometry">
            <mxPoint x="30" y="1840" as="sourcePoint" />
            <mxPoint x="30" y="1890" as="targetPoint" />
          </mxGeometry>
        </mxCell>
        <mxCell id="46j91-FNaxugVj8FgMSO-92" value="" style="endArrow=none;html=1;rounded=0;exitX=0.5;exitY=1;exitDx=0;exitDy=0;" edge="1" parent="WIyWlLk6GJQsqaUBKTNV-1" source="46j91-FNaxugVj8FgMSO-90">
          <mxGeometry width="50" height="50" relative="1" as="geometry">
            <mxPoint x="10" y="2010" as="sourcePoint" />
            <mxPoint x="-140" y="1500" as="targetPoint" />
            <Array as="points">
              <mxPoint x="30" y="1980" />
              <mxPoint x="-210" y="1980" />
              <mxPoint x="-210" y="1500" />
            </Array>
          </mxGeometry>
        </mxCell>
        <mxCell id="46j91-FNaxugVj8FgMSO-93" value="" style="rounded=0;html=1;jettySize=auto;orthogonalLoop=1;fontSize=11;endArrow=block;endFill=0;endSize=8;strokeWidth=1;shadow=0;labelBackgroundColor=none;edgeStyle=orthogonalEdgeStyle;entryX=0;entryY=0.5;entryDx=0;entryDy=0;" edge="1" parent="WIyWlLk6GJQsqaUBKTNV-1" target="46j91-FNaxugVj8FgMSO-72">
          <mxGeometry relative="1" as="geometry">
            <mxPoint x="-140" y="1500" as="sourcePoint" />
            <mxPoint x="-100" y="1500" as="targetPoint" />
          </mxGeometry>
        </mxCell>
        <mxCell id="46j91-FNaxugVj8FgMSO-95" value="" style="endArrow=none;html=1;rounded=0;exitX=0.5;exitY=1;exitDx=0;exitDy=0;" edge="1" parent="WIyWlLk6GJQsqaUBKTNV-1" source="46j91-FNaxugVj8FgMSO-62">
          <mxGeometry width="50" height="50" relative="1" as="geometry">
            <mxPoint x="-330" y="1770" as="sourcePoint" />
            <mxPoint x="-680" y="1490" as="targetPoint" />
            <Array as="points">
              <mxPoint x="-595" y="2130" />
              <mxPoint x="-720" y="2130" />
              <mxPoint x="-730" y="1490" />
            </Array>
          </mxGeometry>
        </mxCell>
        <mxCell id="46j91-FNaxugVj8FgMSO-96" value="" style="rounded=0;html=1;jettySize=auto;orthogonalLoop=1;fontSize=11;endArrow=block;endFill=0;endSize=8;strokeWidth=1;shadow=0;labelBackgroundColor=none;edgeStyle=orthogonalEdgeStyle;" edge="1" parent="WIyWlLk6GJQsqaUBKTNV-1">
          <mxGeometry relative="1" as="geometry">
            <mxPoint x="-680" y="1489.5" as="sourcePoint" />
            <mxPoint x="-640" y="1489.5" as="targetPoint" />
          </mxGeometry>
        </mxCell>
        <mxCell id="46j91-FNaxugVj8FgMSO-97" value="" style="rounded=0;html=1;jettySize=auto;orthogonalLoop=1;fontSize=11;endArrow=block;endFill=0;endSize=8;strokeWidth=1;shadow=0;labelBackgroundColor=none;edgeStyle=orthogonalEdgeStyle;" edge="1" parent="WIyWlLk6GJQsqaUBKTNV-1">
          <mxGeometry relative="1" as="geometry">
            <mxPoint x="1730" y="1180" as="sourcePoint" />
            <mxPoint x="1730" y="1230" as="targetPoint" />
          </mxGeometry>
        </mxCell>
        <mxCell id="46j91-FNaxugVj8FgMSO-98" value="&lt;b&gt;case 6:&lt;/b&gt;" style="text;html=1;strokeColor=none;fillColor=none;align=center;verticalAlign=middle;whiteSpace=wrap;rounded=0;" vertex="1" parent="WIyWlLk6GJQsqaUBKTNV-1">
          <mxGeometry x="1670" y="1180" width="60" height="30" as="geometry" />
        </mxCell>
        <mxCell id="46j91-FNaxugVj8FgMSO-99" value="Asignar el valor 1 a la variable filas" style="rounded=0;whiteSpace=wrap;html=1;" vertex="1" parent="WIyWlLk6GJQsqaUBKTNV-1">
          <mxGeometry x="1670" y="1230" width="120" height="60" as="geometry" />
        </mxCell>
        <mxCell id="46j91-FNaxugVj8FgMSO-100" value="Asignar el valor 1 a la variable columna" style="rounded=0;whiteSpace=wrap;html=1;" vertex="1" parent="WIyWlLk6GJQsqaUBKTNV-1">
          <mxGeometry x="1670" y="1340" width="120" height="60" as="geometry" />
        </mxCell>
        <mxCell id="46j91-FNaxugVj8FgMSO-101" value="" style="rounded=0;html=1;jettySize=auto;orthogonalLoop=1;fontSize=11;endArrow=block;endFill=0;endSize=8;strokeWidth=1;shadow=0;labelBackgroundColor=none;edgeStyle=orthogonalEdgeStyle;" edge="1" parent="WIyWlLk6GJQsqaUBKTNV-1">
          <mxGeometry relative="1" as="geometry">
            <mxPoint x="1729.5" y="1290" as="sourcePoint" />
            <mxPoint x="1729.5" y="1340" as="targetPoint" />
          </mxGeometry>
        </mxCell>
        <mxCell id="46j91-FNaxugVj8FgMSO-102" value="" style="rounded=0;html=1;jettySize=auto;orthogonalLoop=1;fontSize=11;endArrow=block;endFill=0;endSize=8;strokeWidth=1;shadow=0;labelBackgroundColor=none;edgeStyle=orthogonalEdgeStyle;" edge="1" parent="WIyWlLk6GJQsqaUBKTNV-1">
          <mxGeometry relative="1" as="geometry">
            <mxPoint x="1729.5" y="1400" as="sourcePoint" />
            <mxPoint x="1729.5" y="1450" as="targetPoint" />
          </mxGeometry>
        </mxCell>
        <mxCell id="46j91-FNaxugVj8FgMSO-103" value="¿columnas &amp;lt; tamaño y filas &amp;lt;= tamaño?" style="rhombus;whiteSpace=wrap;html=1;" vertex="1" parent="WIyWlLk6GJQsqaUBKTNV-1">
          <mxGeometry x="1660" y="1450" width="140" height="100" as="geometry" />
        </mxCell>
        <mxCell id="46j91-FNaxugVj8FgMSO-105" value="" style="rounded=0;html=1;jettySize=auto;orthogonalLoop=1;fontSize=11;endArrow=block;endFill=0;endSize=8;strokeWidth=1;shadow=0;labelBackgroundColor=none;edgeStyle=orthogonalEdgeStyle;" edge="1" parent="WIyWlLk6GJQsqaUBKTNV-1">
          <mxGeometry relative="1" as="geometry">
            <mxPoint x="1729.5" y="1660" as="sourcePoint" />
            <mxPoint x="1729.5" y="1710" as="targetPoint" />
          </mxGeometry>
        </mxCell>
        <mxCell id="46j91-FNaxugVj8FgMSO-106" value="" style="rounded=0;html=1;jettySize=auto;orthogonalLoop=1;fontSize=11;endArrow=block;endFill=0;endSize=8;strokeWidth=1;shadow=0;labelBackgroundColor=none;edgeStyle=orthogonalEdgeStyle;" edge="1" parent="WIyWlLk6GJQsqaUBKTNV-1">
          <mxGeometry relative="1" as="geometry">
            <mxPoint x="1730" y="1550" as="sourcePoint" />
            <mxPoint x="1730" y="1600" as="targetPoint" />
          </mxGeometry>
        </mxCell>
        <mxCell id="46j91-FNaxugVj8FgMSO-107" value="" style="rounded=0;html=1;jettySize=auto;orthogonalLoop=1;fontSize=11;endArrow=block;endFill=0;endSize=8;strokeWidth=1;shadow=0;labelBackgroundColor=none;edgeStyle=orthogonalEdgeStyle;" edge="1" parent="WIyWlLk6GJQsqaUBKTNV-1">
          <mxGeometry relative="1" as="geometry">
            <mxPoint x="1800" y="1500" as="sourcePoint" />
            <mxPoint x="1840" y="1500" as="targetPoint" />
          </mxGeometry>
        </mxCell>
        <mxCell id="46j91-FNaxugVj8FgMSO-108" value="Escribir el valor de caracter" style="shape=parallelogram;perimeter=parallelogramPerimeter;whiteSpace=wrap;html=1;fixedSize=1;" vertex="1" parent="WIyWlLk6GJQsqaUBKTNV-1">
          <mxGeometry x="1660" y="1600" width="140" height="60" as="geometry" />
        </mxCell>
        <mxCell id="46j91-FNaxugVj8FgMSO-109" value="Escribir &quot; &quot;" style="shape=parallelogram;perimeter=parallelogramPerimeter;whiteSpace=wrap;html=1;fixedSize=1;" vertex="1" parent="WIyWlLk6GJQsqaUBKTNV-1">
          <mxGeometry x="1670" y="1710" width="120" height="60" as="geometry" />
        </mxCell>
        <mxCell id="46j91-FNaxugVj8FgMSO-110" value="&lt;b&gt;Verdadero:&lt;/b&gt;" style="text;html=1;strokeColor=none;fillColor=none;align=center;verticalAlign=middle;whiteSpace=wrap;rounded=0;" vertex="1" parent="WIyWlLk6GJQsqaUBKTNV-1">
          <mxGeometry x="1660" y="1550" width="60" height="30" as="geometry" />
        </mxCell>
        <mxCell id="46j91-FNaxugVj8FgMSO-111" value="&lt;b&gt;Falso:&lt;/b&gt;" style="text;html=1;strokeColor=none;fillColor=none;align=center;verticalAlign=middle;whiteSpace=wrap;rounded=0;" vertex="1" parent="WIyWlLk6GJQsqaUBKTNV-1">
          <mxGeometry x="1790" y="1475" width="60" height="30" as="geometry" />
        </mxCell>
        <mxCell id="46j91-FNaxugVj8FgMSO-112" value="Filas = filas + 1 y columnas = columnas + 1" style="rounded=0;whiteSpace=wrap;html=1;" vertex="1" parent="WIyWlLk6GJQsqaUBKTNV-1">
          <mxGeometry x="1670" y="1820" width="120" height="60" as="geometry" />
        </mxCell>
        <mxCell id="46j91-FNaxugVj8FgMSO-114" value="" style="rounded=0;html=1;jettySize=auto;orthogonalLoop=1;fontSize=11;endArrow=block;endFill=0;endSize=8;strokeWidth=1;shadow=0;labelBackgroundColor=none;edgeStyle=orthogonalEdgeStyle;" edge="1" parent="WIyWlLk6GJQsqaUBKTNV-1">
          <mxGeometry relative="1" as="geometry">
            <mxPoint x="1730" y="1770" as="sourcePoint" />
            <mxPoint x="1730" y="1820" as="targetPoint" />
          </mxGeometry>
        </mxCell>
        <mxCell id="46j91-FNaxugVj8FgMSO-117" value="¿filas &amp;lt; tamaño?" style="rhombus;whiteSpace=wrap;html=1;" vertex="1" parent="WIyWlLk6GJQsqaUBKTNV-1">
          <mxGeometry x="1680" y="1930" width="100" height="100" as="geometry" />
        </mxCell>
        <mxCell id="46j91-FNaxugVj8FgMSO-118" value="" style="rounded=0;html=1;jettySize=auto;orthogonalLoop=1;fontSize=11;endArrow=block;endFill=0;endSize=8;strokeWidth=1;shadow=0;labelBackgroundColor=none;edgeStyle=orthogonalEdgeStyle;" edge="1" parent="WIyWlLk6GJQsqaUBKTNV-1">
          <mxGeometry relative="1" as="geometry">
            <mxPoint x="1729.5" y="2140" as="sourcePoint" />
            <mxPoint x="1729.5" y="2190" as="targetPoint" />
          </mxGeometry>
        </mxCell>
        <mxCell id="46j91-FNaxugVj8FgMSO-119" value="" style="rounded=0;html=1;jettySize=auto;orthogonalLoop=1;fontSize=11;endArrow=block;endFill=0;endSize=8;strokeWidth=1;shadow=0;labelBackgroundColor=none;edgeStyle=orthogonalEdgeStyle;" edge="1" parent="WIyWlLk6GJQsqaUBKTNV-1">
          <mxGeometry relative="1" as="geometry">
            <mxPoint x="1730" y="2030" as="sourcePoint" />
            <mxPoint x="1730" y="2080" as="targetPoint" />
          </mxGeometry>
        </mxCell>
        <mxCell id="46j91-FNaxugVj8FgMSO-120" value="" style="rounded=0;html=1;jettySize=auto;orthogonalLoop=1;fontSize=11;endArrow=block;endFill=0;endSize=8;strokeWidth=1;shadow=0;labelBackgroundColor=none;edgeStyle=orthogonalEdgeStyle;" edge="1" parent="WIyWlLk6GJQsqaUBKTNV-1">
          <mxGeometry relative="1" as="geometry">
            <mxPoint x="1780" y="1979.5" as="sourcePoint" />
            <mxPoint x="1820" y="1979.5" as="targetPoint" />
          </mxGeometry>
        </mxCell>
        <mxCell id="46j91-FNaxugVj8FgMSO-122" value="Escribir el valor de la variable caracter" style="shape=parallelogram;perimeter=parallelogramPerimeter;whiteSpace=wrap;html=1;fixedSize=1;" vertex="1" parent="WIyWlLk6GJQsqaUBKTNV-1">
          <mxGeometry x="1660" y="2190" width="140" height="60" as="geometry" />
        </mxCell>
        <mxCell id="46j91-FNaxugVj8FgMSO-123" value="&lt;b&gt;Verdadero:&lt;/b&gt;" style="text;html=1;strokeColor=none;fillColor=none;align=center;verticalAlign=middle;whiteSpace=wrap;rounded=0;" vertex="1" parent="WIyWlLk6GJQsqaUBKTNV-1">
          <mxGeometry x="1660" y="2030" width="60" height="30" as="geometry" />
        </mxCell>
        <mxCell id="46j91-FNaxugVj8FgMSO-124" value="&lt;b&gt;Falso:&lt;/b&gt;" style="text;html=1;strokeColor=none;fillColor=none;align=center;verticalAlign=middle;whiteSpace=wrap;rounded=0;" vertex="1" parent="WIyWlLk6GJQsqaUBKTNV-1">
          <mxGeometry x="1770" y="1940" width="60" height="30" as="geometry" />
        </mxCell>
        <mxCell id="46j91-FNaxugVj8FgMSO-125" value="Filas = filas + 1" style="rounded=0;whiteSpace=wrap;html=1;" vertex="1" parent="WIyWlLk6GJQsqaUBKTNV-1">
          <mxGeometry x="1670" y="2300" width="120" height="60" as="geometry" />
        </mxCell>
        <mxCell id="46j91-FNaxugVj8FgMSO-126" value="" style="rounded=0;html=1;jettySize=auto;orthogonalLoop=1;fontSize=11;endArrow=block;endFill=0;endSize=8;strokeWidth=1;shadow=0;labelBackgroundColor=none;edgeStyle=orthogonalEdgeStyle;" edge="1" parent="WIyWlLk6GJQsqaUBKTNV-1">
          <mxGeometry relative="1" as="geometry">
            <mxPoint x="1730" y="2250" as="sourcePoint" />
            <mxPoint x="1730" y="2300" as="targetPoint" />
          </mxGeometry>
        </mxCell>
        <mxCell id="46j91-FNaxugVj8FgMSO-127" value="" style="rounded=0;html=1;jettySize=auto;orthogonalLoop=1;fontSize=11;endArrow=block;endFill=0;endSize=8;strokeWidth=1;shadow=0;labelBackgroundColor=none;edgeStyle=orthogonalEdgeStyle;" edge="1" parent="WIyWlLk6GJQsqaUBKTNV-1">
          <mxGeometry relative="1" as="geometry">
            <mxPoint x="1729.5" y="1880" as="sourcePoint" />
            <mxPoint x="1729.5" y="1930" as="targetPoint" />
          </mxGeometry>
        </mxCell>
        <mxCell id="46j91-FNaxugVj8FgMSO-128" value="" style="endArrow=none;html=1;rounded=0;exitX=0.5;exitY=1;exitDx=0;exitDy=0;" edge="1" parent="WIyWlLk6GJQsqaUBKTNV-1" source="46j91-FNaxugVj8FgMSO-125">
          <mxGeometry width="50" height="50" relative="1" as="geometry">
            <mxPoint x="1400" y="2200" as="sourcePoint" />
            <mxPoint x="1580" y="1500" as="targetPoint" />
            <Array as="points">
              <mxPoint x="1730" y="2380" />
              <mxPoint x="1580" y="2380" />
            </Array>
          </mxGeometry>
        </mxCell>
        <mxCell id="46j91-FNaxugVj8FgMSO-129" value="" style="rounded=0;html=1;jettySize=auto;orthogonalLoop=1;fontSize=11;endArrow=block;endFill=0;endSize=8;strokeWidth=1;shadow=0;labelBackgroundColor=none;edgeStyle=orthogonalEdgeStyle;entryX=0;entryY=0.5;entryDx=0;entryDy=0;" edge="1" parent="WIyWlLk6GJQsqaUBKTNV-1" target="46j91-FNaxugVj8FgMSO-103">
          <mxGeometry relative="1" as="geometry">
            <mxPoint x="1580" y="1500" as="sourcePoint" />
            <mxPoint x="1620" y="1500" as="targetPoint" />
          </mxGeometry>
        </mxCell>
        <mxCell id="46j91-FNaxugVj8FgMSO-130" value="" style="endArrow=none;html=1;rounded=0;entryX=1;entryY=1;entryDx=0;entryDy=0;" edge="1" parent="WIyWlLk6GJQsqaUBKTNV-1" target="46j91-FNaxugVj8FgMSO-41">
          <mxGeometry width="50" height="50" relative="1" as="geometry">
            <mxPoint x="2250" y="310" as="sourcePoint" />
            <mxPoint x="-240" y="1580" as="targetPoint" />
            <Array as="points">
              <mxPoint x="2250" y="2130" />
              <mxPoint x="-510" y="2130" />
            </Array>
          </mxGeometry>
        </mxCell>
        <mxCell id="46j91-FNaxugVj8FgMSO-121" value="Escribir &quot; &quot;" style="shape=parallelogram;perimeter=parallelogramPerimeter;whiteSpace=wrap;html=1;fixedSize=1;" vertex="1" parent="WIyWlLk6GJQsqaUBKTNV-1">
          <mxGeometry x="1660" y="2080" width="140" height="60" as="geometry" />
        </mxCell>
        <mxCell id="46j91-FNaxugVj8FgMSO-131" value="" style="rounded=0;html=1;jettySize=auto;orthogonalLoop=1;fontSize=11;endArrow=block;endFill=0;endSize=8;strokeWidth=1;shadow=0;labelBackgroundColor=none;edgeStyle=orthogonalEdgeStyle;" edge="1" parent="WIyWlLk6GJQsqaUBKTNV-1">
          <mxGeometry relative="1" as="geometry">
            <mxPoint x="420" y="309.5" as="sourcePoint" />
            <mxPoint x="280" y="309.5" as="targetPoint" />
          </mxGeometry>
        </mxCell>
        <mxCell id="46j91-FNaxugVj8FgMSO-132" value="" style="endArrow=none;html=1;rounded=0;" edge="1" parent="WIyWlLk6GJQsqaUBKTNV-1">
          <mxGeometry width="50" height="50" relative="1" as="geometry">
            <mxPoint x="420" y="310" as="sourcePoint" />
            <mxPoint x="2250" y="310" as="targetPoint" />
          </mxGeometry>
        </mxCell>
        <mxCell id="46j91-FNaxugVj8FgMSO-133" value="" style="endArrow=none;html=1;rounded=0;exitX=1;exitY=1;exitDx=0;exitDy=0;" edge="1" parent="WIyWlLk6GJQsqaUBKTNV-1" source="46j91-FNaxugVj8FgMSO-76">
          <mxGeometry width="50" height="50" relative="1" as="geometry">
            <mxPoint x="290" y="1740" as="sourcePoint" />
            <mxPoint x="420" y="2130" as="targetPoint" />
            <Array as="points">
              <mxPoint x="420" y="1500" />
            </Array>
          </mxGeometry>
        </mxCell>
        <mxCell id="46j91-FNaxugVj8FgMSO-134" value="" style="endArrow=none;html=1;rounded=0;exitX=1;exitY=0.75;exitDx=0;exitDy=0;" edge="1" parent="WIyWlLk6GJQsqaUBKTNV-1" source="46j91-FNaxugVj8FgMSO-111">
          <mxGeometry width="50" height="50" relative="1" as="geometry">
            <mxPoint x="1520" y="1740" as="sourcePoint" />
            <mxPoint x="1850" y="2130" as="targetPoint" />
          </mxGeometry>
        </mxCell>
        <mxCell id="46j91-FNaxugVj8FgMSO-135" value="" style="endArrow=none;html=1;rounded=0;exitX=1;exitY=1;exitDx=0;exitDy=0;" edge="1" parent="WIyWlLk6GJQsqaUBKTNV-1" source="46j91-FNaxugVj8FgMSO-124">
          <mxGeometry width="50" height="50" relative="1" as="geometry">
            <mxPoint x="1520" y="1840" as="sourcePoint" />
            <mxPoint x="1850" y="1970" as="targetPoint" />
          </mxGeometry>
        </mxCell>
      </root>
    </mxGraphModel>
  </diagram>
</mxfile>
